<svg width="400" height="400" viewBox="0 0 400 400" fill="none" xmlns="http://www.w3.org/2000/svg">
<g clip-path="url(#clip0_2001_2145)">
<path d="M400 0H0V400H400V0Z" fill="#09090B"/>
<path d="M199.893 95C191.714 95 183.753 95.9361 176.116 97.7109C137.278 106.709 106.709 137.278 97.7109 176.112C95.9361 183.753 95 191.714 95 199.893C95 257.824 141.962 304.786 199.893 304.786C208.073 304.786 216.034 303.85 223.675 302.076C262.509 293.077 293.077 262.512 302.079 223.683C303.854 216.041 304.79 208.077 304.79 199.893C304.79 141.962 257.824 95 199.893 95ZM199.893 265.582C192.151 265.582 184.724 264.244 177.828 261.783C159.3 255.176 144.615 240.49 138.007 221.962C135.546 215.066 134.208 207.636 134.208 199.893C134.208 163.614 163.614 134.204 199.893 134.204C207.636 134.204 215.062 135.542 221.959 138.003C240.486 144.611 255.176 159.296 261.783 177.824C264.244 184.72 265.582 192.151 265.582 199.893C265.582 236.172 236.172 265.582 199.893 265.582Z" fill="url(#paint0_linear_2001_2145)"/>
<path d="M199.893 157.557C176.513 157.557 157.557 176.513 157.557 199.893C157.557 223.273 176.513 242.23 199.893 242.23C223.273 242.23 242.23 223.273 242.23 199.893C242.23 176.513 223.277 157.557 199.893 157.557ZM199.893 225.492C185.758 225.492 174.294 214.033 174.294 199.893C174.294 185.754 185.758 174.294 199.893 174.294C214.029 174.294 225.493 185.754 225.493 199.893C225.493 214.033 214.033 225.492 199.893 225.492Z" fill="#FEFCFE"/>
<path d="M221.959 138.003C215.062 135.542 207.636 134.204 199.893 134.204C163.614 134.204 134.208 163.614 134.208 199.893C134.208 207.636 135.546 215.066 138.007 221.962C129.625 218.795 121.766 213.838 115.018 207.09C106.163 198.236 100.395 187.466 97.7109 176.112C106.709 137.278 137.278 106.709 176.116 97.7109C187.466 100.394 198.236 106.163 207.09 115.018C213.834 121.762 218.791 129.621 221.959 138.003Z" fill="url(#paint1_linear_2001_2145)"/>
<path d="M302.186 223.789C293.184 262.619 262.615 293.184 223.781 302.182C212.431 299.499 201.662 293.73 192.807 284.876C186.059 278.128 181.102 270.268 177.935 261.89C184.831 264.351 192.257 265.689 200 265.689C236.279 265.689 265.689 236.279 265.689 200C265.689 192.257 264.351 184.827 261.89 177.931C270.268 181.098 278.128 186.056 284.876 192.804C293.73 201.658 299.503 212.435 302.186 223.789Z" fill="url(#paint2_linear_2001_2145)"/>
<path d="M148.115 273.841C160.239 273.841 170.067 264.013 170.067 251.889C170.067 239.765 160.239 229.937 148.115 229.937C135.991 229.937 126.163 239.765 126.163 251.889C126.163 264.013 135.991 273.841 148.115 273.841Z" fill="url(#paint3_linear_2001_2145)"/>
<path d="M252.08 169.876C264.204 169.876 274.032 160.048 274.032 147.924C274.032 135.8 264.204 125.972 252.08 125.972C239.956 125.972 230.128 135.8 230.128 147.924C230.128 160.048 239.956 169.876 252.08 169.876Z" fill="url(#paint4_linear_2001_2145)"/>
</g>
<defs>
<linearGradient id="paint0_linear_2001_2145" x1="273.059" y1="130.756" x2="129.005" y2="266.881" gradientUnits="userSpaceOnUse">
<stop stop-color="#F38856"/>
<stop offset="0.23" stop-color="#F0625C"/>
<stop offset="1" stop-color="#5C3DAB"/>
</linearGradient>
<linearGradient id="paint1_linear_2001_2145" x1="193.255" y1="112.783" x2="111.316" y2="194.28" gradientUnits="userSpaceOnUse">
<stop stop-color="#F67986"/>
<stop offset="1" stop-color="#8951BA"/>
</linearGradient>
<linearGradient id="paint2_linear_2001_2145" x1="287.075" y1="207.107" x2="205.137" y2="288.608" gradientUnits="userSpaceOnUse">
<stop stop-color="#F67986"/>
<stop offset="1" stop-color="#8951BA"/>
</linearGradient>
<linearGradient id="paint3_linear_2001_2145" x1="164.142" y1="236.891" x2="132.084" y2="266.886" gradientUnits="userSpaceOnUse">
<stop stop-color="#A267B9"/>
<stop offset="1" stop-color="#704BB4"/>
</linearGradient>
<linearGradient id="paint4_linear_2001_2145" x1="265.424" y1="135.434" x2="243.538" y2="155.916" gradientUnits="userSpaceOnUse">
<stop stop-color="#F7A8A5"/>
<stop offset="0.97" stop-color="#D074C4"/>
<stop offset="1" stop-color="#CF76A9"/>
</linearGradient>
<clipPath id="clip0_2001_2145">
<rect width="400" height="400" rx="64" fill="white"/>
</clipPath>
</defs>
</svg>
